P2
64 64
255
106 97 84 97 106 113 113 111 108 105 128 129 130 131 132 133 134 135 137 139 141 143 146 149 152 156 152 149 146 143 141 139 137 135 134 133 132 131 130 129 128 127 127 127 127 127 127 127 127 127 127 127 127 127 127 127 127 127 127 127 127 127 127 127 
97 84 65 84 97 106 111 108 105 128 129 130 131 132 133 134 135 137 139 141 143 146 149 152 156 160 156 152 149 146 143 141 139 137 135 134 133 132 131 130 129 128 127 127 127 127 127 127 127 127 127 127 127 127 127 127 127 127 127 127 127 127 127 127 
84 65 38 65 84 97 106 105 128 129 130 131 132 133 134 135 137 139 141 143 146 149 152 156 160 165 160 156 152 149 146 143 141 139 137 135 134 133 132 131 130 129 128 127 127 127 127 127 127 127 127 127 127 127 127 127 127 127 127 127 127 127 127 127 
97 84 65 84 97 106 105 128 129 130 131 132 133 134 135 137 139 141 143 146 149 152 156 160 165 170 165 160 156 152 149 146 143 141 139 137 135 134 133 132 131 130 129 128 127 127 127 127 127 127 127 127 127 127 127 127 127 127 127 127 127 127 127 127 
106 97 84 97 106 105 128 129 130 131 132 133 134 135 137 139 141 143 146 149 152 156 160 165 170 176 170 165 160 156 152 149 146 143 141 139 137 135 134 133 132 131 130 129 128 127 127 127 127 127 127 127 127 127 127 127 127 127 127 127 127 127 127 127 
113 106 97 106 105 128 129 130 131 132 133 134 135 137 139 141 143 146 149 152 156 160 165 170 176 183 176 170 165 160 156 152 149 146 143 141 139 137 135 134 133 132 131 130 129 128 127 127 127 127 127 127 127 127 127 127 127 127 127 127 127 127 127 127 
113 111 106 105 128 129 130 131 132 133 134 135 137 139 141 143 146 149 152 156 160 165 170 176 183 190 183 176 170 165 160 156 152 149 146 143 141 139 137 135 134 133 132 131 130 129 128 127 127 127 127 127 127 127 127 127 127 127 127 127 127 127 127 127 
111 108 105 128 129 130 131 132 133 134 135 137 139 141 143 146 149 152 156 160 165 170 176 183 190 198 190 183 176 170 165 160 156 152 149 146 143 141 139 137 135 134 133 132 131 130 129 128 127 127 127 127 127 127 127 127 127 127 127 127 127 127 127 127 
113 111 128 129 130 131 132 133 134 135 137 139 141 143 146 149 152 156 160 165 170 176 183 190 198 207 198 190 183 176 170 165 160 156 152 149 146 143 141 139 137 135 134 133 132 131 130 129 128 127 127 127 127 127 127 127 127 127 127 127 127 127 127 127 
115 128 129 130 131 132 133 134 135 137 139 141 143 146 149 152 156 160 165 170 176 183 190 198 207 217 207 198 190 183 176 170 165 160 156 152 149 146 143 141 139 137 135 134 133 132 131 130 129 128 127 127 127 127 127 127 127 127 127 127 127 127 127 127 
128 129 130 131 132 133 134 135 137 139 141 143 146 149 152 156 160 165 170 176 183 190 198 207 217 229 217 207 198 190 183 176 170 165 160 156 152 149 146 143 141 139 137 135 134 133 132 131 130 129 128 127 127 127 127 127 127 127 127 127 127 127 127 127 
129 130 131 132 133 134 135 137 139 141 143 146 149 152 156 160 165 170 176 183 190 198 207 217 229 242 229 217 207 198 190 183 176 170 165 160 156 152 149 146 143 141 139 137 135 134 133 132 131 130 129 128 127 127 127 127 127 127 127 127 127 127 127 127 
128 129 130 131 132 133 134 135 137 139 141 143 146 149 152 156 160 165 170 176 183 190 198 207 217 229 217 207 198 190 183 176 170 165 160 156 152 149 146 143 141 139 137 135 134 133 132 131 130 129 128 127 126 127 127 127 127 127 127 127 127 127 127 127 
121 128 129 130 131 132 133 134 135 137 139 141 143 146 149 152 156 160 165 170 176 183 190 198 207 217 207 198 190 183 176 170 165 160 156 152 149 146 143 141 139 137 135 134 133 132 131 130 129 128 127 126 125 126 127 127 127 127 127 127 127 127 127 127 
122 121 128 129 130 131 132 133 134 135 137 139 141 143 146 149 152 156 160 165 170 176 183 190 198 207 198 190 183 176 170 165 160 156 152 149 146 143 141 139 137 135 134 133 132 131 130 129 128 127 126 125 124 125 126 127 127 127 127 127 127 127 127 127 
123 122 121 128 129 130 131 132 133 134 135 137 139 141 143 146 149 152 156 160 167 179 176 183 190 198 190 183 176 170 165 160 156 152 149 146 143 141 139 137 135 134 133 132 131 130 129 128 126 126 125 124 123 124 125 126 127 127 127 127 127 127 127 127 
124 123 122 128 129 130 131 132 133 134 135 137 139 141 144 147 150 154 158 167 179 194 179 176 183 190 183 176 170 165 160 156 152 149 146 143 141 139 137 135 134 133 132 131 130 129 128 124 125 125 124 123 121 123 124 125 126 127 127 127 127 127 127 127 
125 124 128 129 130 131 132 133 134 135 137 139 141 144 147 150 154 158 167 179 194 213 194 179 176 183 176 170 165 160 156 152 149 146 143 141 139 137 135 134 133 132 131 130 129 128 121 123 124 124 123 121 119 121 123 124 125 126 127 127 127 127 127 127 
126 128 129 130 131 132 133 134 135 137 139 141 144 147 150 154 158 167 179 194 213 238 213 194 179 176 170 165 160 156 152 149 146 143 141 139 137 135 134 133 132 131 130 129 128 115 118 121 123 123 121 119 117 119 121 123 124 125 126 127 127 127 127 127 
128 129 130 131 132 133 134 135 137 139 141 144 147 150 154 158 163 168 167 179 194 213 194 179 167 170 165 160 156 152 149 146 143 141 139 137 135 134 133 132 131 130 129 128 104 110 115 118 121 121 119 117 114 117 119 121 123 124 125 126 127 127 127 127 
129 130 131 132 133 134 135 137 139 141 144 147 150 154 158 163 168 174 168 167 179 194 179 167 160 165 160 156 152 149 146 143 141 139 137 135 134 133 132 131 130 129 128 85 96 104 110 115 118 119 117 114 110 114 117 119 121 123 124 125 126 127 127 127 
130 131 132 133 134 135 137 139 141 144 147 150 154 158 163 168 174 181 174 168 167 179 167 158 156 160 156 152 149 146 143 141 139 137 135 134 133 132 131 130 129 128 52 71 85 96 104 110 115 117 114 110 105 110 114 117 119 121 123 124 125 126 127 127 
131 132 133 134 135 137 139 141 144 147 150 154 158 163 168 174 181 189 181 174 168 167 158 154 152 156 152 149 146 143 141 139 137 135 134 133 132 131 130 129 128 52 27 52 71 85 96 104 110 114 110 105 99 105 110 114 117 119 121 123 124 125 126 127 
132 133 134 135 137 139 141 144 147 150 154 158 163 168 174 181 189 198 189 181 174 168 163 158 154 152 149 146 143 141 139 137 135 134 133 132 131 130 129 128 85 71 52 71 85 96 104 110 114 110 105 99 92 99 105 110 114 117 119 121 123 124 125 126 
133 134 135 137 139 141 144 147 150 154 158 163 168 174 181 189 198 208 198 189 181 174 168 163 158 154 150 147 144 141 139 137 135 134 133 132 131 130 129 128 96 85 71 85 96 104 110 114 110 105 99 92 83 92 99 105 110 114 117 119 121 123 124 125 
134 135 137 139 141 144 147 150 154 158 163 168 174 181 189 198 208 220 208 198 189 181 174 168 163 158 154 150 147 144 141 139 137 135 134 133 132 131 130 129 128 96 85 96 104 110 114 110 105 99 92 83 72 83 92 99 105 110 114 117 119 121 123 124 
133 134 135 137 139 141 144 147 150 154 158 163 168 174 181 189 198 208 198 189 181 174 168 163 158 154 150 147 144 141 139 137 135 134 133 132 131 130 129 128 110 104 96 104 110 114 110 105 99 92 83 72 58 72 83 92 99 105 110 114 117 119 121 123 
132 133 134 135 137 139 141 144 147 150 154 158 163 168 174 181 189 198 189 181 174 168 163 158 154 150 147 144 141 139 137 135 134 133 132 131 130 129 128 118 115 110 104 110 114 110 105 99 92 83 72 58 40 58 72 83 92 99 105 110 114 117 119 121 
131 132 133 134 135 137 139 141 144 147 150 154 160 169 168 174 181 189 181 174 168 163 158 154 150 147 144 141 139 137 135 134 133 132 131 130 129 128 123 121 118 115 110 115 117 114 110 105 99 92 83 72 58 72 83 92 99 105 110 114 117 119 121 123 
130 131 132 133 134 135 137 139 142 147 153 160 169 181 169 168 174 181 174 168 163 158 154 150 147 144 141 139 137 135 134 133 132 131 130 129 128 125 124 123 121 118 115 118 119 117 114 110 105 99 92 83 72 83 92 99 105 110 114 117 119 121 123 124 
129 130 131 132 133 135 138 142 147 153 160 169 181 196 181 169 168 174 168 163 158 154 150 147 144 141 139 137 135 134 133 132 131 130 129 128 126 126 125 124 123 121 118 121 121 119 117 114 110 105 99 92 83 92 99 105 110 114 117 119 121 123 124 125 
129 130 131 133 135 138 142 147 153 160 169 181 196 215 196 181 169 168 163 158 154 150 147 144 141 139 137 135 134 133 132 131 130 129 128 126 127 127 126 125 124 123 121 123 123 121 119 117 114 110 105 99 92 99 105 110 114 117 119 121 123 124 125 126 
130 131 133 135 138 142 147 153 160 169 181 196 215 239 215 196 181 169 160 154 150 147 144 141 139 137 135 134 133 132 131 130 129 128 126 127 127 127 127 126 125 124 123 124 124 123 121 119 117 114 110 105 99 105 110 114 117 119 121 123 124 125 126 127 
129 130 131 133 135 138 142 147 153 160 169 181 196 215 196 181 169 160 153 150 147 144 141 139 137 135 134 133 132 131 130 129 128 126 127 127 127 127 127 127 126 125 124 125 125 124 123 121 119 117 114 110 105 110 114 117 119 121 123 124 125 126 127 127 
128 129 130 131 133 135 138 142 147 153 160 169 181 196 181 169 160 153 147 147 144 141 139 137 135 134 133 132 131 130 129 128 126 127 127 127 127 127 127 127 127 126 125 126 126 125 124 123 121 119 117 114 110 114 117 119 121 123 124 125 126 127 127 127 
128 129 130 131 133 136 139 144 150 158 153 160 169 181 169 160 153 147 142 144 141 139 137 135 134 133 132 131 130 129 128 127 127 127 127 127 127 127 127 127 127 127 126 127 127 126 125 124 123 121 119 117 114 117 119 121 123 124 125 126 127 127 127 127 
129 130 131 133 136 139 144 150 158 168 158 153 160 169 160 153 147 142 139 141 139 137 135 134 133 132 131 130 129 128 127 127 127 127 127 127 127 127 127 127 127 127 127 127 127 127 126 125 124 123 121 119 117 119 121 123 124 125 126 127 127 127 127 127 
130 131 133 136 139 144 150 158 168 182 168 158 153 160 153 147 142 138 137 139 137 135 134 133 132 131 130 129 128 127 127 127 127 127 127 127 127 127 127 127 127 127 127 127 127 127 127 126 125 124 123 121 119 121 123 124 125 126 127 127 127 127 127 127 
131 133 136 139 144 150 158 168 182 200 182 168 158 153 147 142 138 135 135 137 135 134 133 132 131 130 129 128 127 127 127 127 127 127 127 127 127 127 127 127 127 127 127 127 127 127 127 127 126 125 124 123 121 123 124 125 126 127 127 127 127 127 127 127 
133 136 139 144 150 158 168 182 200 224 200 182 168 158 150 144 139 136 134 135 134 133 132 131 130 129 128 127 127 127 127 127 127 127 127 127 127 127 127 127 127 127 127 127 127 127 127 127 127 126 125 124 123 124 125 126 127 127 127 127 127 127 127 127 
131 133 136 139 144 150 158 168 182 200 182 168 158 150 144 139 136 133 133 134 133 132 131 130 129 128 127 127 127 127 127 127 127 127 127 127 127 127 127 127 127 127 127 127 127 127 127 127 127 127 126 125 124 125 126 127 127 127 127 127 127 127 127 127 
130 132 134 137 141 146 150 158 168 182 168 158 150 144 139 136 133 131 132 133 132 131 130 129 128 127 127 127 127 127 127 127 127 127 127 127 127 127 127 127 127 127 127 127 127 127 127 127 127 127 127 126 125 126 127 127 127 127 127 127 127 127 127 127 
132 134 137 141 146 152 146 150 158 168 158 150 144 139 136 133 131 130 131 132 131 130 129 128 127 127 127 127 127 127 127 127 127 127 127 127 127 127 127 127 127 127 127 127 127 127 127 127 127 127 127 127 126 127 127 127 127 127 127 127 127 127 127 127 
134 137 141 146 152 161 152 146 150 158 150 144 139 136 133 131 130 129 130 131 130 129 128 127 127 127 127 127 127 127 127 127 127 127 127 127 127 127 127 127 127 127 127 127 127 127 127 127 127 127 127 127 127 127 127 127 127 127 127 127 127 127 127 127 
137 141 146 152 161 172 161 152 146 150 144 139 136 133 131 130 129 128 129 130 129 128 127 127 127 127 127 127 127 127 127 127 127 127 127 127 127 127 127 127 127 127 127 127 127 127 127 127 127 127 127 127 127 127 127 127 127 127 127 127 127 127 127 127 
141 146 152 161 172 187 172 161 152 146 141 137 134 132 130 129 128 127 128 129 128 127 127 127 127 127 127 127 127 127 127 127 127 127 127 127 127 127 127 127 127 127 127 127 127 127 127 127 127 127 127 127 127 127 127 127 127 127 127 127 127 127 127 127 
146 152 161 172 187 207 187 172 161 152 146 141 137 134 132 130 129 128 127 128 127 127 127 127 127 127 127 127 127 127 127 127 127 127 127 127 127 127 127 127 127 127 127 127 127 127 127 127 127 127 127 127 127 127 127 127 127 127 127 127 127 127 127 127 
141 146 152 161 172 187 172 161 152 146 141 137 134 132 130 129 128 127 127 127 127 127 127 127 127 127 127 127 127 127 127 127 127 127 127 127 127 127 127 127 127 127 127 127 127 127 127 127 127 127 127 127 127 127 127 127 127 127 127 127 127 127 127 127 
138 143 146 152 161 172 161 152 146 141 137 134 132 130 129 128 127 127 127 127 127 127 127 127 127 127 127 127 127 127 127 127 127 127 127 127 127 127 127 127 127 127 127 127 127 127 127 127 127 127 127 127 127 127 127 127 127 127 127 127 127 127 127 127 
143 150 143 146 152 161 152 146 141 137 134 132 130 129 128 127 127 127 127 127 127 127 127 127 127 127 127 127 127 127 127 127 127 127 127 127 127 127 127 127 127 127 127 127 127 127 127 127 127 127 127 127 127 127 127 127 127 127 127 127 127 127 127 127 
150 159 150 143 146 152 146 141 137 134 132 130 129 128 127 127 127 127 127 127 127 127 127 127 127 127 127 127 127 127 127 127 127 127 127 127 127 127 127 127 127 127 127 127 127 127 127 127 127 127 127 127 127 127 127 127 127 127 127 127 127 127 127 127 
159 172 159 150 143 146 141 137 134 132 130 129 128 127 127 127 127 127 127 127 127 127 127 127 127 127 127 127 127 127 127 127 127 127 127 127 127 127 127 127 127 127 127 127 127 127 127 127 127 127 127 127 127 127 127 127 127 127 127 127 127 127 127 127 
172 190 172 159 150 143 138 134 132 130 129 128 127 127 127 127 127 127 127 127 127 127 127 127 127 127 127 127 127 127 127 127 127 127 127 127 127 127 127 127 127 127 127 127 127 127 127 127 127 127 127 127 127 127 127 127 127 127 127 127 127 127 127 127 
190 215 190 172 159 150 143 138 134 132 130 129 128 127 127 127 127 127 127 127 127 127 127 127 127 127 127 127 127 127 127 127 127 127 127 127 127 127 127 127 127 127 127 127 127 127 127 127 127 127 127 127 127 127 127 127 127 127 127 127 127 127 127 127 
172 190 172 159 150 143 138 134 132 130 129 128 127 127 127 127 127 127 127 127 127 127 127 127 127 127 127 127 127 127 127 127 127 127 127 127 127 127 127 127 127 127 127 127 127 127 127 127 127 127 127 127 127 127 127 127 127 127 127 127 127 127 127 127 
159 172 159 150 143 138 134 132 130 129 128 127 127 127 127 127 127 127 127 127 127 127 127 127 127 127 127 127 127 127 127 127 127 127 127 127 127 127 127 127 127 127 127 127 127 127 127 127 127 127 127 127 127 127 127 127 127 127 127 127 127 127 127 127 
150 159 150 143 138 134 132 130 129 128 127 127 127 127 127 127 127 127 127 127 127 127 127 127 127 127 127 127 127 127 127 127 127 127 127 127 127 127 127 127 127 127 127 127 127 127 127 127 127 127 127 127 127 127 127 127 127 127 127 127 127 127 127 127 
143 150 143 138 134 132 130 129 128 127 127 127 127 127 127 127 127 127 127 127 127 127 127 127 127 127 127 127 127 127 127 127 127 127 127 127 127 127 127 127 127 127 127 127 127 127 127 127 127 127 127 127 127 127 127 127 127 127 127 127 127 127 127 127 
138 143 138 134 132 130 129 128 127 127 127 127 127 127 127 127 127 127 127 127 127 127 127 127 127 127 127 127 127 127 127 127 127 127 127 127 127 127 127 127 127 127 127 127 127 127 127 127 127 127 127 127 127 127 127 127 127 127 127 127 127 127 127 127 
134 138 134 132 130 129 128 127 127 127 127 127 127 127 127 127 127 127 127 127 127 127 127 127 127 127 127 127 127 127 127 127 127 127 127 127 127 127 127 127 127 127 127 127 127 127 127 127 127 127 127 127 127 127 127 127 127 127 127 127 127 127 127 127 
132 134 132 130 129 128 127 127 127 127 127 127 127 127 127 127 127 127 127 127 127 127 127 127 127 127 127 127 127 127 127 127 127 127 127 127 127 127 127 127 127 127 127 127 127 127 127 127 127 127 127 127 127 127 127 127 127 127 127 127 127 127 127 127 
130 132 130 129 128 127 127 127 127 127 127 127 127 127 127 127 127 127 127 127 127 127 127 127 127 127 127 127 127 127 127 127 127 127 127 127 127 127 127 127 127 127 127 127 127 127 127 127 127 127 127 127 127 127 127 127 127 127 127 127 127 127 127 127 
129 130 129 128 127 127 127 127 127 127 127 127 127 127 127 127 127 127 127 127 127 127 127 127 127 127 127 127 127 127 127 127 127 127 127 127 127 127 127 127 127 127 127 127 127 127 127 127 127 127 127 127 127 127 127 127 127 127 127 127 127 127 127 127 
128 129 128 127 127 127 127 127 127 127 127 127 127 127 127 127 127 127 127 127 127 127 127 127 127 127 127 127 127 127 127 127 127 127 127 127 127 127 127 127 127 127 127 127 127 127 127 127 127 127 127 127 127 127 127 127 127 127 127 127 127 127 127 127 
