P2
64 64
255
70 60 49 60 70 78 85 91 97 102 103 98 93 98 103 107 110 113 115 117 128 129 130 131 132 134 132 131 130 129 128 119 117 119 120 121 122 123 124 125 126 127 127 127 127 127 127 127 127 127 127 127 127 127 127 127 127 127 127 127 127 127 127 127 
60 49 36 49 60 70 78 85 91 97 98 93 87 93 98 103 107 110 113 128 129 130 131 132 134 136 134 132 131 130 129 128 115 117 119 120 121 122 123 124 125 126 126 127 127 127 127 127 127 127 127 127 127 127 127 127 127 127 127 127 127 127 127 127 
49 36 21 36 49 60 70 78 85 91 93 87 80 87 93 98 103 107 128 129 130 131 132 134 136 138 136 134 132 131 130 129 128 115 117 119 120 121 122 123 124 125 125 126 127 127 127 127 127 127 127 127 127 127 127 127 127 127 127 127 127 127 127 127 
60 49 36 49 60 70 78 85 91 93 87 80 72 80 87 93 98 128 129 130 131 132 134 136 138 141 138 136 134 132 131 130 129 128 115 117 119 120 121 122 123 124 124 125 126 127 127 127 127 127 127 127 127 127 127 127 127 127 127 127 127 127 127 127 
70 60 49 60 70 78 85 91 93 87 80 72 63 72 80 87 128 129 130 131 132 134 136 138 141 145 141 138 136 134 132 131 130 129 128 115 117 119 120 121 122 123 123 124 125 126 127 127 127 127 127 127 127 127 127 127 127 127 127 127 127 127 127 127 
78 70 60 70 78 85 91 93 87 80 72 63 52 63 72 128 129 130 131 132 134 136 138 141 145 150 145 141 138 136 134 132 131 130 129 128 115 117 119 120 121 122 122 123 124 125 126 127 127 127 127 127 127 127 127 127 127 127 127 127 127 127 127 127 
85 78 70 78 85 91 93 87 80 72 63 52 39 52 128 129 130 131 132 134 136 138 141 145 150 156 150 145 141 138 136 134 132 131 130 129 128 115 117 119 120 121 121 122 123 124 125 126 127 127 127 127 127 127 127 127 127 127 127 127 127 127 127 127 
91 85 78 85 91 93 87 80 72 63 52 39 24 128 129 130 131 132 134 136 138 141 145 150 156 163 156 150 145 141 138 136 134 132 131 130 129 128 115 117 119 120 119 121 122 123 124 125 126 127 127 127 127 127 127 127 127 127 127 127 127 127 127 127 
97 91 85 91 97 98 93 87 80 72 63 52 128 129 130 131 132 134 136 138 141 145 150 156 163 172 163 156 150 145 141 138 136 134 132 131 130 129 128 115 117 119 117 119 121 122 123 124 125 126 127 127 127 127 127 127 127 127 127 127 127 127 127 127 
102 97 91 97 102 103 98 93 87 80 72 128 129 130 131 132 134 136 138 141 145 150 156 163 172 182 172 163 156 150 145 141 138 136 134 132 131 130 129 128 115 117 115 117 119 121 122 123 124 125 126 127 127 127 127 127 127 127 127 127 127 127 127 127 
106 102 97 102 106 107 103 98 93 87 128 129 130 131 132 134 136 138 141 145 150 156 163 172 182 195 182 172 163 156 150 145 141 138 136 134 132 131 130 129 128 115 112 115 117 119 121 122 123 124 125 126 127 127 127 127 127 127 127 127 127 127 127 127 
109 106 102 106 109 110 107 103 98 128 129 130 131 132 134 136 138 141 145 150 156 163 172 182 195 210 195 182 172 163 156 150 145 141 138 136 134 132 131 130 129 128 109 112 115 117 119 121 122 123 124 125 126 127 127 127 127 127 127 127 127 127 127 127 
112 109 106 109 112 113 110 107 103 98 128 129 130 131 132 134 136 138 141 145 150 156 163 172 182 195 182 172 163 156 150 145 141 138 136 134 132 131 130 129 128 109 106 109 112 115 117 119 121 122 123 124 125 126 127 127 127 127 127 127 127 127 127 127 
115 112 109 112 115 115 113 110 107 103 128 129 130 131 133 135 137 140 144 148 153 160 156 163 172 182 172 163 156 150 145 141 138 136 134 132 131 130 129 128 105 106 102 106 109 112 115 117 119 121 122 123 124 125 126 127 127 127 127 127 127 127 127 127 
117 115 112 115 117 117 115 113 110 128 129 130 131 133 135 137 140 144 148 153 160 168 160 156 163 172 163 156 150 145 141 138 136 134 132 131 130 129 128 98 102 102 97 102 106 109 112 115 117 119 121 122 123 124 125 126 127 127 127 127 127 127 127 127 
119 117 115 117 119 119 117 115 128 129 130 131 133 135 137 140 144 148 153 160 168 178 168 160 156 163 156 150 145 141 138 136 134 132 131 130 129 128 89 94 98 97 91 97 102 106 109 112 115 117 119 121 122 123 124 125 126 127 127 127 127 127 127 127 
121 119 117 119 121 121 119 128 129 130 131 133 135 137 140 144 148 153 160 168 178 191 178 168 160 156 150 145 141 138 136 134 132 131 130 129 128 78 84 89 94 91 85 91 97 102 106 109 112 115 117 119 121 122 123 124 125 126 127 127 127 127 127 127 
122 121 119 121 122 122 128 129 130 131 133 135 137 140 144 148 153 160 168 178 191 207 191 178 168 160 153 148 144 140 137 135 133 131 130 129 128 71 78 84 89 85 78 85 91 97 102 106 109 112 115 117 119 121 122 123 124 125 126 127 127 127 127 127 
123 122 121 122 123 128 129 130 131 133 135 137 140 144 148 153 160 168 178 191 207 226 207 191 178 168 160 153 148 144 140 137 135 133 131 130 129 128 84 89 85 78 70 78 85 91 97 102 106 109 112 115 117 119 121 122 123 124 125 126 127 127 127 127 
124 123 122 123 124 124 128 129 130 131 133 135 137 140 144 148 153 160 168 178 191 207 191 178 168 160 153 148 144 140 137 135 133 131 130 129 128 84 89 85 78 70 60 70 78 85 91 97 102 106 109 112 115 117 119 121 122 123 124 125 126 127 127 127 
125 124 123 124 125 125 124 128 129 130 131 133 135 137 140 144 148 153 160 168 178 191 178 168 160 153 148 144 140 137 135 133 131 130 129 128 84 89 85 78 70 60 49 60 70 78 85 91 97 102 106 109 112 115 117 119 121 122 123 124 125 126 127 127 
126 125 124 125 126 126 125 124 128 129 130 131 133 135 137 141 147 155 153 160 168 178 168 160 153 148 144 140 137 135 133 131 130 129 128 84 89 85 78 70 60 49 36 49 60 70 78 85 91 97 102 106 108 112 115 117 119 121 122 123 124 125 126 127 
127 126 125 126 127 127 126 125 128 129 130 132 134 137 141 147 155 166 155 153 160 168 160 153 148 144 140 137 135 133 131 130 129 128 84 89 85 78 70 60 49 36 21 36 49 60 70 78 85 91 97 102 101 108 112 115 117 119 121 122 123 124 125 126 
127 127 126 127 127 127 127 128 129 130 132 134 137 141 147 155 166 181 166 155 153 160 153 148 144 140 137 135 133 131 130 129 128 84 89 94 91 85 78 70 60 49 36 49 60 70 78 85 91 97 102 101 92 101 108 113 117 120 122 123 124 125 126 127 
127 127 127 127 127 127 128 129 130 132 134 137 141 147 155 166 181 201 181 166 155 153 148 144 140 137 135 133 131 130 129 128 84 89 94 98 97 91 85 78 70 60 49 60 70 78 85 91 97 102 101 92 80 92 101 108 113 117 120 122 124 125 126 127 
127 127 127 127 127 128 129 130 132 134 137 141 147 155 166 181 201 227 201 181 166 155 147 141 137 135 133 131 130 129 128 94 89 94 98 102 102 97 91 85 78 70 60 70 78 85 91 97 102 101 92 80 65 80 92 101 108 113 117 120 122 124 125 126 
127 127 127 127 127 127 128 129 130 132 134 137 141 147 155 166 181 201 181 166 155 147 141 137 135 133 131 130 129 128 102 98 94 98 102 105 106 102 97 91 85 78 70 78 85 91 97 102 101 92 80 65 45 65 80 92 101 108 113 117 120 122 124 125 
127 127 127 127 127 128 129 130 131 133 136 139 143 148 147 155 166 181 166 155 147 141 137 134 133 131 130 129 128 108 105 102 98 102 105 108 109 106 102 97 91 85 78 85 91 97 102 101 92 80 65 45 18 45 65 80 92 101 108 113 117 120 122 124 
127 127 127 127 128 129 130 131 133 136 139 143 148 155 148 147 155 166 155 147 141 137 134 132 131 130 129 128 113 111 108 105 102 105 108 111 112 109 106 102 97 91 85 91 97 102 106 108 101 92 80 65 45 65 80 92 101 108 113 117 120 122 124 125 
127 127 127 128 129 130 131 133 136 139 143 148 155 164 155 148 147 155 147 141 137 134 132 130 130 129 128 117 115 113 111 108 105 108 111 113 115 112 109 106 102 97 91 97 102 106 109 112 108 101 92 80 65 80 92 101 108 113 117 120 122 124 125 126 
127 127 128 129 130 131 133 136 139 143 148 155 164 176 164 155 148 147 141 137 134 132 130 129 129 128 120 119 117 115 113 111 108 111 113 115 117 115 112 109 106 102 97 102 106 109 112 115 113 108 101 92 80 92 101 108 113 117 120 122 124 125 126 127 
127 128 129 130 131 133 136 139 143 148 155 164 176 191 176 164 155 148 143 139 136 133 131 130 129 128 121 120 119 117 115 113 111 113 115 117 119 117 115 112 109 106 102 106 109 112 115 117 117 113 108 101 92 101 108 113 117 120 122 124 125 126 127 127 
128 129 130 131 133 136 139 143 148 155 164 176 191 211 191 176 164 155 148 143 139 136 133 131 130 129 128 121 120 119 117 115 113 115 117 119 120 119 117 115 112 109 106 109 112 115 117 119 120 117 113 108 101 108 113 117 120 122 124 125 126 127 127 127 
128 129 130 131 133 135 138 141 145 150 155 164 176 191 176 164 155 148 143 139 136 133 131 130 129 128 123 122 121 120 119 117 115 117 119 120 121 121 119 117 115 112 109 112 115 117 119 121 122 120 117 113 108 113 117 120 122 124 125 126 127 127 127 127 
129 130 131 133 135 138 141 145 150 156 150 155 164 176 164 155 148 143 139 136 133 131 130 129 128 125 124 123 122 121 120 119 117 119 120 121 122 122 121 119 117 115 112 115 117 119 121 122 123 122 120 117 113 117 120 122 124 125 126 127 127 127 127 127 
130 131 133 135 138 141 145 150 156 164 156 150 155 164 155 148 143 139 136 133 131 130 129 128 127 126 125 124 123 122 121 120 119 120 121 122 123 123 122 121 119 117 115 117 119 121 122 123 124 124 122 120 117 120 122 124 125 126 127 127 127 127 127 127 
131 133 135 138 141 145 150 156 164 174 164 156 150 155 148 143 139 136 133 131 130 129 128 127 127 127 126 125 124 123 122 121 120 121 122 123 124 124 123 122 121 119 117 119 121 122 123 124 125 125 124 122 120 122 124 125 126 127 127 127 127 127 127 127 
133 135 138 141 145 150 156 164 174 186 174 164 156 150 145 141 138 135 133 131 130 129 128 127 127 127 127 126 125 124 123 122 121 122 123 124 125 125 124 123 122 121 119 121 122 123 124 125 126 126 125 124 122 124 125 126 127 127 127 127 127 127 127 127 
135 138 141 145 150 156 164 174 186 201 186 174 164 156 150 145 141 138 135 133 131 130 129 128 127 127 127 127 126 125 124 123 122 123 124 125 126 126 125 124 123 122 121 122 123 124 125 126 127 127 126 125 124 125 126 127 127 127 127 127 127 127 127 127 
138 141 145 150 156 164 174 186 201 220 201 186 174 164 156 150 145 141 138 135 133 131 130 129 128 127 127 127 127 126 125 124 123 124 125 126 127 127 126 125 124 123 122 123 124 125 126 127 127 127 127 126 125 126 127 127 127 127 127 127 127 127 127 127 
135 138 141 145 150 156 164 174 186 201 186 174 164 156 150 145 141 138 135 133 131 130 129 128 127 127 127 127 127 127 126 125 124 125 126 127 127 127 127 126 125 124 123 124 125 126 127 127 127 127 127 127 126 127 127 127 127 127 127 127 127 127 127 127 
135 138 142 146 152 159 156 164 174 186 174 164 156 150 145 141 138 135 133 131 130 129 128 127 127 127 127 127 127 127 127 126 125 126 127 127 127 127 127 127 126 125 124 125 126 127 127 127 127 127 127 127 127 127 127 127 127 127 127 127 127 127 127 127 
138 142 146 152 159 168 159 156 164 174 164 156 150 145 141 138 135 133 131 130 129 128 127 127 127 127 127 127 127 127 127 127 126 127 127 127 127 127 127 127 127 126 125 126 127 127 127 127 127 127 127 127 127 127 127 127 127 127 127 127 127 127 127 127 
142 146 152 159 168 179 168 159 156 164 156 150 145 141 138 135 133 131 130 129 128 127 127 127 127 127 127 127 127 127 127 127 127 127 127 127 127 127 127 127 127 127 126 127 127 127 127 127 127 127 127 127 127 127 127 127 127 127 127 127 127 127 127 127 
146 152 159 168 179 194 179 168 159 156 150 145 141 138 135 133 131 130 129 128 127 127 127 127 127 127 127 127 127 127 127 127 127 127 127 127 127 127 127 127 127 127 127 127 127 127 127 127 127 127 127 127 127 127 127 127 127 127 127 127 127 127 127 127 
152 159 168 179 194 213 194 179 168 159 152 146 142 138 135 133 131 130 129 128 127 127 127 127 127 127 127 127 127 127 127 127 127 127 127 127 127 127 127 127 127 127 127 127 127 127 127 127 127 127 127 127 127 127 127 127 127 127 127 127 127 127 127 127 
159 168 179 194 213 237 213 194 179 168 159 152 146 142 138 135 133 131 130 129 128 127 127 127 127 127 127 127 127 127 127 127 127 127 127 127 127 127 127 127 127 127 127 127 127 127 127 127 127 127 127 127 127 127 127 127 127 127 127 127 127 127 127 127 
152 159 168 179 194 213 194 179 168 159 152 146 142 138 135 133 131 130 129 128 127 127 127 127 127 127 127 127 127 127 127 127 127 127 127 127 127 127 127 127 127 127 127 127 127 127 127 127 127 127 127 127 127 127 127 127 127 127 127 127 127 127 127 127 
153 159 159 168 179 194 179 168 159 152 146 142 138 135 133 131 130 129 128 127 127 127 127 127 127 127 127 127 127 127 127 127 127 127 127 127 127 127 127 127 127 127 127 127 127 127 127 127 127 127 127 127 127 127 127 127 127 127 127 127 127 127 127 127 
159 166 159 159 168 179 168 159 152 146 142 138 135 133 131 130 129 128 127 127 127 127 127 127 127 127 127 127 127 127 127 127 127 127 127 127 127 127 127 127 127 127 127 127 127 127 127 127 127 127 127 127 127 127 127 127 127 127 127 127 127 127 127 127 
166 174 166 159 159 168 159 152 146 142 138 135 133 131 130 129 128 127 127 127 127 127 127 127 127 127 127 127 127 127 127 127 127 127 127 127 127 127 127 127 127 127 127 127 127 127 127 127 127 127 127 127 127 127 127 127 127 127 127 127 127 127 127 127 
174 184 174 166 159 159 152 146 142 138 136 134 132 131 130 129 128 127 127 127 127 127 127 127 127 127 127 127 127 127 127 127 127 127 127 127 127 127 127 127 127 127 127 127 127 127 127 127 127 127 127 127 127 127 127 127 127 127 127 127 127 127 127 127 
184 196 184 174 166 159 153 148 144 141 138 136 134 132 131 130 129 128 127 127 127 127 127 127 127 127 127 127 127 127 127 127 127 127 127 127 127 127 127 127 127 127 127 127 127 127 127 127 127 127 127 127 127 127 127 127 127 127 127 127 127 127 127 127 
196 210 196 184 174 166 159 153 148 144 141 138 136 134 132 131 130 129 128 127 127 127 127 127 127 127 127 127 127 127 127 127 127 127 127 127 127 127 127 127 127 127 127 127 127 127 127 127 127 127 127 127 127 127 127 127 127 127 127 127 127 127 127 127 
184 196 184 174 166 159 153 148 144 141 138 136 134 132 131 130 129 128 127 127 127 127 127 127 127 127 127 127 127 127 127 127 127 127 127 127 127 127 127 127 127 127 127 127 127 127 127 127 127 127 127 127 127 127 127 127 127 127 127 127 127 127 127 127 
174 184 174 166 159 153 148 144 141 138 136 134 132 131 130 129 128 127 127 127 127 127 127 127 127 127 127 127 127 127 127 127 127 127 127 127 127 127 127 127 127 127 127 127 127 127 127 127 127 127 127 127 127 127 127 127 127 127 127 127 127 127 127 127 
166 174 166 159 153 148 144 141 138 136 134 132 131 130 129 128 127 127 127 127 127 127 127 127 127 127 127 127 127 127 127 127 127 127 127 127 127 127 127 127 127 127 127 127 127 127 127 127 127 127 127 127 127 127 127 127 127 127 127 127 127 127 127 127 
159 166 159 153 148 144 141 138 136 134 132 131 130 129 128 127 127 127 127 127 127 127 127 127 127 127 127 127 127 127 127 127 127 127 127 127 127 127 127 127 127 127 127 127 127 127 127 127 127 127 127 127 127 127 127 127 127 127 127 127 127 127 127 127 
153 159 153 148 144 141 138 136 134 132 131 130 129 128 127 127 127 127 127 127 127 127 127 127 127 127 127 127 127 127 127 127 127 127 127 127 127 127 127 127 127 127 127 127 127 127 127 127 127 127 127 127 127 127 127 127 127 127 127 127 127 127 127 127 
148 153 148 144 141 138 136 134 132 131 130 129 128 127 127 127 127 127 127 127 127 127 127 127 127 127 127 127 127 127 127 127 127 127 127 127 127 127 127 127 127 127 127 127 127 127 127 127 127 127 127 127 127 127 127 127 127 127 127 127 127 127 127 127 
144 148 144 141 138 136 134 132 131 130 129 128 127 127 127 127 127 127 127 127 127 127 127 127 127 127 127 127 127 127 127 127 127 127 127 127 127 127 127 127 127 127 127 127 127 127 127 127 127 127 127 127 127 127 127 127 127 127 127 127 127 127 127 127 
141 144 141 138 136 134 132 131 130 129 128 127 127 127 127 127 127 127 127 127 127 127 127 127 127 127 127 127 127 127 127 127 127 127 127 127 127 127 127 127 127 127 127 127 127 127 127 127 127 127 127 127 127 127 127 127 127 127 127 127 127 127 127 127 
138 141 138 136 134 132 131 130 129 128 127 127 127 127 127 127 127 127 127 127 127 127 127 127 127 127 127 127 127 127 127 127 127 127 127 127 127 127 127 127 127 127 127 127 127 127 127 127 127 127 127 127 127 127 127 127 127 127 127 127 127 127 127 127 
136 138 136 134 132 131 130 129 128 127 127 127 127 127 127 127 127 127 127 127 127 127 127 127 127 127 127 127 127 127 127 127 127 127 127 127 127 127 127 127 127 127 127 127 127 127 127 127 127 127 127 127 127 127 127 127 127 127 127 127 127 127 127 127 
